custom-analysis
version=1
nRows=4
nColumns=98
inDegrees=no

This file contains tibia displacement and acting force.

Units are S.I. units (seconds, meters, Newtons, ...)
Angles are in degrees.

endheader
time	APT	SIT	knee_angle	aACL_R_force	pACL_R_force	aPCL_R_force	pPCL_R_force	aMCL_R_force	mMCL_R_force	pMCL_R_force	aLCL_R_force	mLCL_R_force	pLCL_R_force	aPCL_L_force	pPCL_L_force	aMCL_L_force	aLCL_L_force	aACL_R_length	pACL_R_length	aPCL_R_length	pPCL_R_length	aMCL_R_length	mMCL_R_length	pMCL_R_length	aLCL_R_length	mLCL_R_length	pLCL_R_length	aPCL_L_length	pPCL_L_length	aMCL_L_length	aLCL_L_length	aACL_R_strain	pACL_R_strain	aPCL_R_strain	pPCL_R_strain	aMCL_R_strain	mMCL_R_strain	pMCL_R_strain	aLCL_R_strain	mLCL_R_strain	pLCL_R_strain	aPCL_L_strain	pPCL_L_strain	aMCL_L_strain	aLCL_L_strain	femur_lat_meniscii_r.femur_lat_r.force.X	femur_lat_meniscii_r.femur_lat_r.force.Y	femur_lat_meniscii_r.femur_lat_r.force.Z	femur_lat_meniscii_r.femur_lat_r.torque.X	femur_lat_meniscii_r.femur_lat_r.torque.Y	femur_lat_meniscii_r.femur_lat_r.torque.Z	femur_lat_meniscii_r.meniscus_lat_r.force.X	femur_lat_meniscii_r.meniscus_lat_r.force.Y	femur_lat_meniscii_r.meniscus_lat_r.force.Z	femur_lat_meniscii_r.meniscus_lat_r.torque.X	femur_lat_meniscii_r.meniscus_lat_r.torque.Y	femur_lat_meniscii_r.meniscus_lat_r.torque.Z	femur_med_meniscii_r.femur_med_r.force.X	femur_med_meniscii_r.femur_med_r.force.Y	femur_med_meniscii_r.femur_med_r.force.Z	femur_med_meniscii_r.femur_med_r.torque.X	femur_med_meniscii_r.femur_med_r.torque.Y	femur_med_meniscii_r.femur_med_r.torque.Z	femur_med_meniscii_r.meniscus_med_r.force.X	femur_med_meniscii_r.meniscus_med_r.force.Y	femur_med_meniscii_r.meniscus_med_r.force.Z	femur_med_meniscii_r.meniscus_med_r.torque.X	femur_med_meniscii_r.meniscus_med_r.torque.Y	femur_med_meniscii_r.meniscus_med_r.torque.Z	femur_med_tibia_r.tibia_upper_r.force.X	femur_med_tibia_r.tibia_upper_r.force.Y	femur_med_tibia_r.tibia_upper_r.force.Z	femur_med_tibia_r.tibia_upper_r.torque.X	femur_med_tibia_r.tibia_upper_r.torque.Y	femur_med_tibia_r.tibia_upper_r.torque.Z	femur_med_tibia_r.femur_med_r.force.X	femur_med_tibia_r.femur_med_r.force.Y	femur_med_tibia_r.femur_med_r.force.Z	femur_med_tibia_r.femur_med_r.torque.X	femur_med_tibia_r.femur_med_r.torque.Y	femur_med_tibia_r.femur_med_r.torque.Z	femur_lat_tibia_r.tibia_upper_r.force.X	femur_lat_tibia_r.tibia_upper_r.force.Y	femur_lat_tibia_r.tibia_upper_r.force.Z	femur_lat_tibia_r.tibia_upper_r.torque.X	femur_lat_tibia_r.tibia_upper_r.torque.Y	femur_lat_tibia_r.tibia_upper_r.torque.Z	femur_lat_tibia_r.femur_lat_r.force.X	femur_lat_tibia_r.femur_lat_r.force.Y	femur_lat_tibia_r.femur_lat_r.force.Z	femur_lat_tibia_r.femur_lat_r.torque.X	femur_lat_tibia_r.femur_lat_r.torque.Y	femur_lat_tibia_r.femur_lat_r.torque.Z	femur_lat_meniscii_force_r	femur_med_meniscii_force_r	femur_lat_tibia_force_r	femur_med_tibia_force_r
      0.74413311	      0.00111019	      0.00049677	      1.66574369	     19.51516908	     42.31149396	      0.00000000	      0.00000000	      0.00000000	      2.39900928	     42.60462789	      0.61391823	      0.00000000	      0.87596890	      0.00000000	      0.00000000	      0.00000001	      0.00000000	      0.03258361	      0.02693892	      0.02840165	      0.02875461	      0.05615462	      0.06096893	      0.06327916	      0.05609792	      0.05453184	      0.05268106	      0.01525851	      0.01651186	      0.06550154	      0.04489616	      0.05089767	      0.07503266	     -0.08662555	     -0.03791484	     -0.06451060	      0.01965820	      0.07749558	      0.00215661	     -0.03172588	      0.00646427	      0.00000079	     -0.32847694	      0.00000060	     -0.00000086	     34.81640934	     80.26823482	      6.26399592	     -4.61793263	      0.87535682	     14.60946145	    -34.81640934	    -80.26823482	     -6.26399592	      2.62267979	     -1.05773349	     -1.18247423	     42.35664514	     78.52991023	      6.01290560	     -0.78751760	     -0.95289084	     17.97571521	    -42.35664514	    -78.52991023	     -6.01290560	     -1.12012617	      0.73173201	     -1.64933663	     -1.31589520	    -10.75722089	      3.57793388	     -0.23699309	     -0.02908317	     -0.17481482	      1.31589520	     10.75722089	     -3.57793388	      1.66864439	      0.02388767	      0.68572808	      0.00000000	      0.00000000	      0.00000000	      0.00000000	      0.00000000	      0.00000000	      0.00000000	      0.00000000	      0.00000000	      0.00000000	      0.00000000	      0.00000000	     87.71778340	     89.42699381	      0.00000000	     11.41275569
      0.74496583	      0.00111048	      0.00049668	      1.66574369	     19.51769600	     42.31678536	      0.00000000	      0.00000000	      0.00000000	      2.39888634	     42.60293826	      0.60293158	      0.00000000	      0.86550152	      0.00000000	      0.00000000	      0.00000001	      0.00000000	      0.03258379	      0.02693910	      0.02840168	      0.02875462	      0.05615442	      0.06096873	      0.06327900	      0.05609845	      0.05453240	      0.05268163	      0.01525851	      0.01651186	      0.06550154	      0.04489616	      0.05090347	      0.07503969	     -0.08662457	     -0.03791458	     -0.06451400	      0.01965479	      0.07749281	      0.00216604	     -0.03171598	      0.00647514	      0.00000079	     -0.32847694	      0.00000060	     -0.00000086	     34.80741944	     80.20441435	      6.27422115	     -4.62055870	      0.87508934	     14.60542717	    -34.80741944	    -80.20441435	     -6.27422115	      2.62097956	     -1.05739669	     -1.18192131	     42.28472280	     78.62951369	      5.96288981	     -0.76412640	     -0.95142471	     17.94544989	    -42.28472280	    -78.62951369	     -5.96288981	     -1.12382921	      0.73069258	     -1.64668494	     -1.31960798	    -10.78774134	      3.58743116	     -0.23765067	     -0.02915728	     -0.17531089	      1.31960798	     10.78774134	     -3.58743116	      1.67310393	      0.02394801	      0.68766620	      0.00000000	      0.00000000	      0.00000000	      0.00000000	      0.00000000	      0.00000000	      0.00000000	      0.00000000	      0.00000000	      0.00000000	      0.00000000	      0.00000000	     87.65654784	     89.47711584	      0.00000000	     11.44492860
      0.74827070	      0.00111171	      0.00049632	      1.66574369	     19.53494374	     42.34545931	      0.00000000	      0.00000000	      0.00000000	      2.40782387	     42.60576281	      0.56799557	      0.00000000	      0.83239718	      0.00000000	      0.00000000	      0.00000001	      0.00000000	      0.03258450	      0.02693978	      0.02840176	      0.02875461	      0.05615365	      0.06096796	      0.06327839	      0.05610046	      0.05453453	      0.05268380	      0.01525851	      0.01651186	      0.06550154	      0.04489616	      0.05092641	      0.07506705	     -0.08662204	     -0.03791470	     -0.06452684	      0.01964187	      0.07748244	      0.00220201	     -0.03167814	      0.00651673	      0.00000079	     -0.32847694	      0.00000060	     -0.00000086	     34.77577639	     79.95981783	      6.30723575	     -4.62798891	      0.87413632	     14.59112809	    -34.77577639	    -79.95981783	     -6.30723575	      2.61419487	     -1.05618617	     -1.17987672	     42.34908061	     78.77484312	      5.98516887	     -0.77008655	     -0.95293817	     17.97336053	    -42.34908061	    -78.77484312	     -5.98516887	     -1.12593995	      0.73199730	     -1.64975066	     -1.33486687	    -10.91085810	      3.62577456	     -0.24030118	     -0.02944874	     -0.17730412	      1.33486687	     10.91085810	     -3.62577456	      1.69110347	      0.02418285	      0.69558580	      0.00000000	      0.00000000	      0.00000000	      0.00000000	      0.00000000	      0.00000000	      0.00000000	      0.00000000	      0.00000000	      0.00000000	      0.00000000	      0.00000000	     87.42258469	     89.63672675	      0.00000000	     11.57475422
      0.75061468	      0.00111263	      0.00049609	      1.66574369	     19.54674374	     42.36550994	      0.00000000	      0.00000000	      0.00000000	      2.41498972	     42.60842378	      0.54416944	      0.00000000	      0.80920276	      0.00000000	      0.00000000	      0.00000001	      0.00000000	      0.03258500	      0.02694026	      0.02840179	      0.02875459	      0.05615314	      0.06096744	      0.06327799	      0.05610181	      0.05453596	      0.05268527	      0.01525851	      0.01651186	      0.06550154	      0.04489616	      0.05094256	      0.07508602	     -0.08662127	     -0.03791562	     -0.06453534	      0.01963329	      0.07747564	      0.00222614	     -0.03165270	      0.00654471	      0.00000079	     -0.32847694	      0.00000060	     -0.00000086	     34.75468080	     79.79647613	      6.32841408	     -4.63256854	      0.87347560	     14.58156657	    -34.75468080	    -79.79647613	     -6.32841408	      2.60960858	     -1.05535025	     -1.17847957	     42.39566065	     78.87378135	      6.00655009	     -0.77680972	     -0.95409863	     17.99351640	    -42.39566065	    -78.87378135	     -6.00655009	     -1.12710680	      0.73300110	     -1.65192336	     -1.34463164	    -10.99009103	      3.65044689	     -0.24200937	     -0.02963541	     -0.17858165	      1.34463164	     10.99009103	     -3.65044689	      1.70268581	      0.02433393	      0.70065690	      0.00000000	      0.00000000	      0.00000000	      0.00000000	      0.00000000	      0.00000000	      0.00000000	      0.00000000	      0.00000000	      0.00000000	      0.00000000	      0.00000000	     87.26634096	     89.74711177	      0.00000000	     11.65829737
